<svg id="Layer_1" data-name="Layer 1" xmlns="http://www.w3.org/2000/svg" viewBox="0 0 300 300"><defs><style>.cls-1{fill:#FA5028;isolation:isolate;}</style></defs><title>icon_SM</title><path class="cls-1" d="M189.84.75a233.56,233.56,0,0,1,23.8.81c5.17,0,10.34,1,15.24,1.5V50.93h-32c-12.65,0-22,5.17-22.72,21.08,0,11.43-.68,36.58-.68,37.95h52.77c-2.58,18.36-4.89,35.9-7.48,53.71h-45l-1,134.1H117.09l1.08-134.36H72.61V110h45.84v-36a146.77,146.77,0,0,1,1.76-20.4,61.22,61.22,0,0,1,24.35-40A69.83,69.83,0,0,1,184.68,1.16Z"/></svg>