<svg xmlns="http://www.w3.org/2000/svg" viewBox="0 0 180 180"><defs><style>.cls-1{isolation:isolate;}.cls-2{fill:#ccc;mix-blend-mode:multiply;}.cls-3{fill:#fff;}</style></defs><title>Artboard 35 copy 2</title><g class="cls-1"><g id="Layer_1" data-name="Layer 1"><polygon class="cls-2" points="89.47 109.18 63.95 83.56 41.24 83.56 66.75 109.18 89.47 109.18"/><path class="cls-2" d="M91.72,83.67l-.51,67H63.44L89,176.26h27.77l.51-67h22.61c1.28-8.85,2.45-17.65,3.73-26.82L119.05,57.83a6.6,6.6,0,0,1,.45-.78,3.78,3.78,0,0,1,.22-.33,5.32,5.32,0,0,1,.47-.48,7.13,7.13,0,0,1,1.15-1.05c.21-.15.43-.28.66-.42a10.37,10.37,0,0,1,1.29-.65c.25-.1.5-.2.77-.28a12.89,12.89,0,0,1,1.57-.41c.25,0,.48-.11.74-.14a20,20,0,0,1,2.52-.24c2-.07,3.93-.09,5.9-.09,2.62,0,5.24,0,7.86,0h1.9l.18-23.88L119.21,3.51,119,27.38h-1.9l-7.86,0c-2,0-3.93,0-5.89.08a22.39,22.39,0,0,0-2.53.24c-.25,0-.49.1-.73.15a14.58,14.58,0,0,0-1.58.4c-.27.09-.52.19-.77.29a8.65,8.65,0,0,0-1.29.65,7.31,7.31,0,0,0-.66.41,7.69,7.69,0,0,0-1.15,1.06c-.12.12-.26.2-.37.33l-.09.14a3.39,3.39,0,0,0-.23.34,5.89,5.89,0,0,0-.48.71c-.11.19-.19.41-.29.61l-.18.38c0,.1-.09.18-.12.28A11,11,0,0,0,92.44,35s0,.09,0,.13c0,.21-.06.46-.1.68-.08.47-.17.92-.21,1.44,0,.23,0,.46,0,.69-.2,5.69-.35,18.26-.35,18.92l23.12,23.21c-.17,1.21-.33,2.41-.51,3.62Z"/><path class="cls-3" d="M99.72,2.38c4,0,8,.21,11.91.39,2.58.11,5.16.48,7.58.74L119,27.38h-1.9l-7.86,0c-2,0-3.93,0-5.89.08-6.33.22-11,2.59-11.31,10.49-.2,5.69-.35,18.26-.35,18.92.33,0,6.58,0,12.87,0,3.15,0,6.22,0,8.36,0h5.12c-1.29,9.17-2.46,18-3.74,26.83H91.72l-.51,67H63.44L64,83.56H41.24l.2-26.67H64.26v-2c0-5.37,0-10.75.18-16.12a66.53,66.53,0,0,1,.87-10.23c1.54-8.17,5.33-15,12.17-19.92,6-4.27,12.8-6.06,20-6.22Z"/></g></g></svg>