<svg id="Layer_1" data-name="Layer 1" xmlns="http://www.w3.org/2000/svg" viewBox="0 0 200 200"><defs><style>.cls-1{fill:none;stroke:#000;stroke-miterlimit:10;stroke-width:7.5px;}</style></defs><title>Artboard 2 copy 5</title><g id="XTLKGN.tif"><path class="cls-1" d="M110.81,195h-22c-1-4-1.67-7.86-3-11.56-3-8.7-8.57-14.9-18.08-16.48-6-1-11.87.18-17.46,2.46-3.33,1.36-6.54,3-10,4.62L25.55,158.57c5.54-9.81,10.2-19.83,5.19-31.11-4.94-11.12-15.2-15-26.2-17.93V89.89c3.16-1.07,6.38-2,9.5-3.24a31.81,31.81,0,0,0,12.18-8c7.45-8.08,8-17.37,4.46-27.21-1.3-3.61-3.18-7-5-10.89L40.26,25.18c3.52,1.63,6.81,3.31,10.22,4.68,5.28,2.13,10.8,3.3,16.51,2.5,9.32-1.29,15.19-7,18.36-15.47,1.5-4,2.32-8.32,3.5-12.67h22.36c.78,3.41,1.34,6.82,2.35,10.08,2.66,8.52,7.48,15.15,16.6,17.55,6.06,1.59,12,.67,17.76-1.44,3.46-1.28,6.7-3.11,10.1-4.55a2.69,2.69,0,0,1,2.38.25c4.68,4.76,9.25,9.63,13.93,14.56-5.52,9.81-10.25,19.91-5.14,31.26,5,11.08,15.29,15,26.2,17.8v19.71c-25.55,5.72-36.67,23.64-21,49.12-4.72,5-9.45,10-14.28,14.92-.35.36-1.62.17-2.24-.17A54.08,54.08,0,0,0,141,167.05c-11.25-2-20.87,2.78-25.48,13.2C113.45,184.83,112.41,189.84,110.81,195Zm-13-47.42A47.38,47.38,0,1,0,50.63,100,47.42,47.42,0,0,0,97.8,147.62Z"/></g></svg>