<svg id="Layer_1" data-name="Layer 1" xmlns="http://www.w3.org/2000/svg" viewBox="0 0 300 300"><defs><style>.cls-1{isolation:isolate;}.cls-2{fill:#dbdbdd;}</style></defs><title>icon_SM</title><g class="cls-1"><path class="cls-2" d="M274.9,77.27A144.69,144.69,0,0,0,222,24.36a142.13,142.13,0,0,0-73-19.5,142.26,142.26,0,0,0-73,19.5A144.74,144.74,0,0,0,23.1,77.27a142.25,142.25,0,0,0-19.5,73q0,47.54,27.73,85.48T103,288.27q5.12.94,7.57-1.33a7.39,7.39,0,0,0,2.46-5.67q0-.57-.09-10.23t-.1-16.84l-4.35.75a55.59,55.59,0,0,1-10.51.66,80.6,80.6,0,0,1-13.16-1.32,29.4,29.4,0,0,1-12.68-5.68A24,24,0,0,1,63.8,237l-1.89-4.36a47.42,47.42,0,0,0-6-9.65q-4.06-5.31-8.23-7.19l-1.33-1a13.82,13.82,0,0,1-2.46-2.28,10.2,10.2,0,0,1-1.7-2.65c-.38-.88-.07-1.61,1-2.18s2.83-.84,5.49-.84l3.78.56q3.8.76,9.37,4.54A30.44,30.44,0,0,1,71,221.82,33.47,33.47,0,0,0,81.5,233.65a22.33,22.33,0,0,0,12.4,4.07,54.4,54.4,0,0,0,10.79-.94,37.6,37.6,0,0,0,8.52-2.85q1.71-12.69,9.28-19.5A128.15,128.15,0,0,1,103.08,211a77,77,0,0,1-17.79-7.38A50.81,50.81,0,0,1,70.05,191q-6.06-7.56-9.94-19.88a94.39,94.39,0,0,1-3.88-28.39q0-22.92,15-39-7-17.22,1.32-38.62Q78,63.36,88.79,67.61A113.46,113.46,0,0,1,104.6,74.9q5,3,8.05,5.11a136.74,136.74,0,0,1,72.7,0l7.2-4.54A101,101,0,0,1,210,67.14q10-3.8,15.34-2.08,8.52,21.39,1.51,38.62,15,16.09,15,39a95.67,95.67,0,0,1-3.88,28.49q-3.88,12.41-10,19.88a53,53,0,0,1-15.34,12.59,77.06,77.06,0,0,1-17.8,7.38,129.2,129.2,0,0,1-19.4,3.42q9.84,8.51,9.84,26.88v39.94a7.54,7.54,0,0,0,2.37,5.68c1.58,1.51,4.07,2,7.48,1.32q43.92-14.56,71.66-52.53t27.73-85.48A142.32,142.32,0,0,0,274.9,77.27Z"/></g></svg>