<svg id="Layer_1" data-name="Layer 1" xmlns="http://www.w3.org/2000/svg" viewBox="0 0 300 300"><defs><style>.cls-1{fill:#FA5028;isolation:isolate;}</style></defs><title>icon_SM</title><path class="cls-1" d="M229,54.49h0a17.72,17.72,0,0,1,17.72,17.72v.14a17.13,17.13,0,1,1-18-17.86Z"/><path class="cls-1" d="M295.76,77.27c2.11,23.35,3.65,133.49-3.24,159.37a75.8,75.8,0,0,1-65.4,59.21,714.76,714.76,0,0,1-81.72,3.38A498.34,498.34,0,0,1,63,294.73,74.14,74.14,0,0,1,4,230.16C0,205.13-.46,89.51,6.85,63.77A75.53,75.53,0,0,1,71.41,6.24a565.27,565.27,0,0,1,74.27-3.38c28.13,0,56.26.85,72.3,1.69a81.75,81.75,0,0,1,54.15,22.23A78.48,78.48,0,0,1,295.76,77.27Zm-28.13,148a1071.12,1071.12,0,0,0,1.82-145.43,49.93,49.93,0,0,0-44.3-47.27A674.46,674.46,0,0,0,151,29.73c-29.53,0-58.93.85-71.73,2.25a50.64,50.64,0,0,0-47.4,44.59,1004.25,1004.25,0,0,0-1,149.51,48,48,0,0,0,36.56,42.2,456.87,456.87,0,0,0,79.61,4.36c31.09,0,61.61-1,73.15-2.25a50.5,50.5,0,0,0,47.4-44.87"/><path class="cls-1" d="M150,75.17a75.24,75.24,0,0,1,75.25,75.24v.71a76.66,76.66,0,0,1-76.52,75.95A75.25,75.25,0,0,1,73.38,152v-.84A76.51,76.51,0,0,1,150,75.17Zm-1.13,125a49.66,49.66,0,0,0,49.51-48.67,48.65,48.65,0,0,0-47.67-49.64h-.57a49.65,49.65,0,0,0-49.65,48.67,48.8,48.8,0,0,0,47.95,49.64h.43"/></svg>