<svg xmlns="http://www.w3.org/2000/svg" viewBox="0 0 180 180"><defs><style>.cls-1{isolation:isolate;}.cls-2{fill:#ccc;mix-blend-mode:multiply;}.cls-3{fill:#fff;}</style></defs><title>Artboard 35</title><g class="cls-1"><g id="Layer_1" data-name="Layer 1"><path class="cls-2" d="M69.85,53.4a22.94,22.94,0,0,0-3.17,1.13c-.58.26-1.11.58-1.67.89A25.4,25.4,0,0,0,62.43,57c-.53.39-1,.81-1.52,1.24a24.59,24.59,0,0,0-2.12,2.09c-.25.28-.57.5-.81.79s-.36.57-.57.84c-.38.51-.72,1-1.06,1.57-.23.35-.51.67-.71,1s-.42.91-.64,1.36-.37.75-.53,1.14c-.1.23-.22.43-.31.66a24.33,24.33,0,0,0-1,3.18s0,0,0,.07,0,.22,0,.33a23.15,23.15,0,0,0-.46,3c0,.48-.06,1-.06,1.45a22.69,22.69,0,0,0,.1,2.62c.05.55.17,1.07.26,1.6.05.34.1.68.16,1a24.28,24.28,0,0,0,1.06,3.71c0,.09.09.17.13.27s.2.42.3.63a23.19,23.19,0,0,0,1.65,3.12c.18.28.35.56.54.84s.24.41.39.6a24.61,24.61,0,0,0,2.26,2.64h0l19.63,19.71c-1,.09-2,.18-3.06.18a36.28,36.28,0,0,1-25.76-10.67h0L78.1,130a36.18,36.18,0,0,0,25.76,10.67,38.26,38.26,0,0,0,4-.23c.43-.05.85-.13,1.28-.2.89-.13,1.77-.26,2.63-.45.5-.11,1-.25,1.47-.38.77-.2,1.55-.42,2.3-.68.5-.16,1-.35,1.48-.53.72-.28,1.44-.58,2.14-.9.47-.22,1-.44,1.41-.68.7-.35,1.37-.74,2-1.13.43-.26.86-.51,1.28-.78.7-.45,1.38-.94,2-1.44.35-.27.72-.51,1.05-.78.85-.68,1.66-1.41,2.44-2.16.13-.12.28-.24.41-.37.89-.89,1.74-1.82,2.55-2.8l.12-.14c.07-.08.12-.19.19-.27a37.41,37.41,0,0,0,3.3-4.86c0-.07.1-.12.14-.19a.36.36,0,0,1,0-.09,36.74,36.74,0,0,0,2-4.31c.07-.17.17-.33.24-.5s.11-.43.19-.64a36.41,36.41,0,0,0,1.11-3.69c.05-.2.13-.39.18-.59a1.13,1.13,0,0,1,0-.18,37.65,37.65,0,0,0,.7-4.66c0-.15.05-.29.07-.44.06-.85.1-1.71.1-2.57,0-1.25,0-2.5-.15-3.72v0a37,37,0,0,0-.73-4.5c-.1-.42-.21-.83-.31-1.24-.3-1.13-.65-2.25-1-3.34-.09-.23-.14-.48-.23-.71s-.1-.21-.14-.32a36.69,36.69,0,0,0-1.84-3.91c-.12-.24-.28-.46-.41-.69a34.37,34.37,0,0,0-1.92-3c-.12-.17-.21-.37-.34-.53s-.27-.3-.39-.46A36.3,36.3,0,0,0,130.24,78h0L102.42,50.09a36.73,36.73,0,0,1,3.1,3.6c.24.32.49.65.72,1a34.53,34.53,0,0,1,1.92,3c.14.23.29.45.42.69a36.62,36.62,0,0,1,1.83,3.91c.13.34.24.69.37,1a34,34,0,0,1,1,3.34c.11.41.22.82.31,1.24a37,37,0,0,1,.74,4.5c.11,1.23.17,2.48.16,3.74,0,1-.09,1.91-.17,2.86L93.2,59.23a23.44,23.44,0,0,0-16.46-6.9h-.21a23.89,23.89,0,0,0-5.11.59C70.88,53,70.38,53.25,69.85,53.4ZM85.22,89.91c.43-.57.9-1.1,1.38-1.63a24.47,24.47,0,0,1,2.11-2.09c.5-.43,1-.85,1.53-1.24a25.4,25.4,0,0,1,2.58-1.62c.55-.3,1.09-.63,1.67-.89a24.19,24.19,0,0,1,3.16-1.13c.53-.15,1-.36,1.58-.48a23.89,23.89,0,0,1,5.11-.58h.21a23.26,23.26,0,0,1,7.9,1.52c-.11.66-.15,1.35-.3,2-.06.27-.14.51-.2.77a35.89,35.89,0,0,1-1.12,3.7q-.19.57-.42,1.14a36.8,36.8,0,0,1-2,4.31c0,.1-.12.18-.17.27a36,36,0,0,1-3.31,4.87c-.11.13-.2.27-.31.4a35.7,35.7,0,0,1-2.55,2.81l-.39.35c-.79.76-1.6,1.49-2.45,2.17-.34.28-.7.52-1,.78-.67.5-1.35,1-2.06,1.45-.41.27-.84.52-1.27.77-.67.4-1.35.78-2,1.14-.46.24-.93.46-1.41.68-.7.32-1.41.62-2.14.9l-1.47.53c-.76.25-1.53.47-2.31.68-.49.13-1,.26-1.46.37-.68.15-1.38.25-2.08.36A21.92,21.92,0,0,1,81,109c-.07-.33-.11-.67-.17-1a24.36,24.36,0,0,1-.36-4.22A23.65,23.65,0,0,1,81,99.25c0-.1,0-.21,0-.31A23.62,23.62,0,0,1,82.27,95c.17-.39.36-.76.54-1.14a23.38,23.38,0,0,1,1.34-2.4C84.49,90.94,84.84,90.42,85.22,89.91Z"/><path class="cls-2" d="M44.11,163.35c4.66,4.68,10.81,8,18.38,10,5.71,1.48,22.72,2.11,39.74,2.11,16.63,0,33.28-.6,39.45-1.6a47.73,47.73,0,0,0,6.64-1.58c.66-.21,1.27-.47,1.91-.7a38.22,38.22,0,0,0,4.08-1.75c.66-.33,1.3-.68,1.93-1a35,35,0,0,0,3.47-2.33c.53-.41,1.08-.79,1.59-1.23A33.15,33.15,0,0,0,165,161.5c.16-.19.36-.33.51-.52a.61.61,0,0,0,.07-.1,37,37,0,0,0,3.35-4.95,1.82,1.82,0,0,0,.15-.23c.3-.52.51-1.13.78-1.68.58-1.15,1.16-2.3,1.65-3.55.06-.16.16-.3.22-.47.57-1.52,1.09-3.1,1.53-4.75.08-.3.16-.62.24-1s.2-1.05.3-1.62a2.74,2.74,0,0,1,.05-.28c.15-.95.3-2,.43-3.2,0-.29.06-.59.1-.89.11-1.1.22-2.26.32-3.49,0-.14,0-.27,0-.41a.41.41,0,0,1,0-.11c.1-1.39.2-2.87.28-4.39,0-.48,0-1,.08-1.48.06-1.14.11-2.29.16-3.48,0-.62.05-1.23.07-1.86,0-1.16.08-2.33.12-3.52,0-.62,0-1.23.05-1.86,0-1.43.06-2.88.09-4.34,0-.37,0-.74,0-1.11,0-1.85,0-3.71.06-5.57,0-.5,0-1,0-1.51,0-1.37,0-2.73,0-4.09V99.15c0-1.25,0-2.49,0-3.71,0-.6,0-1.19,0-1.78,0-1.4,0-2.75-.05-4.09,0-.37,0-.75,0-1.11,0-1.7-.06-3.33-.1-4.9,0-.31,0-.6,0-.9,0-1.24-.07-2.42-.1-3.56,0-.44,0-.86-.05-1.28,0-.95-.06-1.84-.1-2.69,0-.4,0-.8-.05-1.18,0-.87-.08-1.65-.13-2.39,0-.25,0-.52,0-.75-.05-.87-.11-1.65-.17-2.29,0-.06,0-.11,0-.16a46.1,46.1,0,0,0-1.06-6.2c-.16-.65-.39-1.26-.58-1.9-.29-1-.54-2-.92-3-.13-.35-.32-.67-.46-1-.23-.55-.49-1.07-.74-1.61a37.32,37.32,0,0,0-2.15-3.85c-.3-.47-.58-.94-.9-1.4-.16-.23-.28-.47-.44-.69a36.21,36.21,0,0,0-3.52-4.08l-27.8-27.91a36.83,36.83,0,0,1,4,4.77c.32.45.59.93.89,1.4a34.62,34.62,0,0,1,2.15,3.85c.25.53.51,1.06.74,1.61a38.44,38.44,0,0,1,1.39,4c.18.63.42,1.25.57,1.9a43.14,43.14,0,0,1,1.06,6.2c.06.66.12,1.49.18,2.43,0,.26,0,.58.05.86,0,.7.08,1.44.12,2.26v.08l-20.22-20.3a25.45,25.45,0,0,0-14.42-6.93c-6.16-.93-21-1.35-35.76-1.35-14.24,0-28.41.39-34.65,1.07a31.38,31.38,0,0,0-4.91,1c-.5.14-1,.34-1.44.5a25.28,25.28,0,0,0-3,1.17c-.52.25-1,.53-1.5.81a20.83,20.83,0,0,0-2.42,1.56c-.45.33-.9.67-1.32,1a21.59,21.59,0,0,0-2.09,2.08c-.25.27-.55.48-.78.77-.1.12-.17.27-.27.4a19.27,19.27,0,0,0-1.12,1.66c-.29.44-.62.83-.88,1.29-.09.16-.15.34-.23.5-.25.46-.45.95-.67,1.43s-.49,1-.69,1.47c-.09.26-.15.55-.24.81-.19.56-.36,1.15-.52,1.74s-.29.86-.4,1.32c-.14.66-.27,1.34-.38,2s-.24,1.74-.35,2.78c0,.36-.07.79-.11,1.17-.06.66-.12,1.28-.18,2,0,.1,0,.21,0,.3,0,.36,0,.75-.07,1.11-.07.9-.13,1.81-.18,2.79,0,.48,0,1-.08,1.47,0,.94-.09,1.9-.13,2.89,0,.55-.05,1.1-.07,1.66,0,1.06-.07,2.15-.11,3.26,0,.51,0,1-.05,1.52,0,1.61-.08,3.26-.11,4.94,0,.3,0,.6,0,.9,0,1.41,0,2.82-.06,4.25,0,.63,0,1.26,0,1.89l0,3.35c0,.69,0,1.37,0,2v3.38c0,.6,0,1.2,0,1.8,0,1.47,0,2.92,0,4.35,0,.23,0,.46,0,.69,0,1.66,0,3.26.07,4.83l0,1.26c0,1.13.05,2.23.08,3.29,0,.5,0,1,0,1.47,0,.94.07,1.84.1,2.71,0,.45,0,.91.06,1.34,0,.92.08,1.76.13,2.58,0,.3,0,.63.05.91.07,1,.13,2,.21,2.78a.17.17,0,0,0,0,.07c.08.94.17,1.75.27,2.39a29.93,29.93,0,0,0,1.44,5.5c.08.21.1.48.18.69s.19.31.26.48a23,23,0,0,0,2.61,4.79c.05.06.07.15.12.21a21.52,21.52,0,0,0,2,2.36L46,146.78a70.58,70.58,0,0,1-11.3-1.36,46.92,46.92,0,0,1-5.41-1.72,36.77,36.77,0,0,1-13-8.26h0ZM147.47,48.78c0,.35,0,.67,0,1s0,.95.05,1.45c0,1,.06,2.14.09,3.26,0,.4,0,.78,0,1.19,0,1,0,2.1.06,3.18L135.13,46.22c2.15.16,4,.34,5.4.55A28.91,28.91,0,0,1,147.47,48.78ZM118.6,45.55c-.15.08-.26.21-.41.28l-.41.14a8.64,8.64,0,0,1-3.09.62,8.43,8.43,0,0,1-4-1.15Q114.75,45.47,118.6,45.55Zm-13.83-.13H110L136.49,72a8.28,8.28,0,0,0,9.09,1.9c.14,0,.28-.08.41-.14a8.69,8.69,0,0,0,1.89-1.11v.54c0,1.29,0,2.6,0,3.91,0,.58,0,1.16,0,1.74,0,1.84,0,3.68-.06,5.51,0,.36,0,.71,0,1.08q0,2.22-.09,4.41c0,.6,0,1.18-.05,1.78,0,1.21-.07,2.4-.11,3.58,0,.61-.05,1.21-.07,1.81-.05,1.21-.11,2.38-.17,3.53,0,.48,0,1-.07,1.45-.09,1.57-.19,3.09-.3,4.51l0,.4c-.1,1.24-.21,2.4-.33,3.5,0,.3-.06.6-.1.89-.13,1.16-.27,2.25-.43,3.2a2.16,2.16,0,0,1-.05.27c-.16,1-.34,1.88-.53,2.6a48.4,48.4,0,0,1-1.76,5.22c-.49,1.24-1.06,2.39-1.64,3.53-.31.64-.59,1.32-.94,1.93a35.1,35.1,0,0,1-3.35,4.94c-.18.23-.39.41-.58.62a33.25,33.25,0,0,1-3.69,3.72c-.5.44-1.05.82-1.58,1.22a34.52,34.52,0,0,1-3.47,2.34c-.63.36-1.28.72-1.94,1a35.47,35.47,0,0,1-4.08,1.74c-.64.24-1.25.5-1.91.71a47.06,47.06,0,0,1-6.64,1.58c-6.16,1-22.81,1.59-39.45,1.59-9.19,0-18.32-.19-25.72-.59a.43.43,0,0,1,0-.07c-.16-.38-.3-.77-.44-1.17a29,29,0,0,1-1.44-5.5c-.1-.64-.19-1.45-.28-2.39s-.15-1.8-.21-2.85c0-.29,0-.62,0-.93-.05-.8-.09-1.63-.13-2.53,0-.45,0-.92-.06-1.4,0-.85-.07-1.73-.1-2.65,0-.51,0-1-.05-1.54,0-1,0-2-.07-3.08,0-.5,0-1,0-1.48,0-1.53,0-3.11-.07-4.72,0-.35,0-.7,0-1q0-2,0-4v-5.26c0-.62,0-1.24,0-1.86,0-1.21,0-2.41,0-3.62,0-.55,0-1.11,0-1.66,0-1.47,0-2.92.07-4.36,0-.29,0-.57,0-.86,0-1.69.08-3.36.12-5,0-.44,0-.87,0-1.31,0-1.18.08-2.35.12-3.47,0-.53,0-1,.06-1.54.05-1,.09-2,.14-3,0-.49.05-1,.08-1.45.05-1,.11-2,.18-2.86,0-.34,0-.7.07-1,.06-.86.13-1.62.2-2.39,0-.36.07-.77.1-1.11.11-1,.23-2,.35-2.79a31.32,31.32,0,0,1,.79-3.34c.16-.59.33-1.18.52-1.74a22.93,22.93,0,0,1,.93-2.27c.21-.49.42-1,.66-1.44.34-.63.73-1.2,1.11-1.79s.72-1.14,1.13-1.66.7-.78,1.05-1.17a22.68,22.68,0,0,1,2.08-2.08c.43-.36.87-.7,1.33-1a22.23,22.23,0,0,1,2.42-1.56c.49-.28,1-.56,1.49-.8a28,28,0,0,1,3-1.18c.49-.16.95-.36,1.45-.49a31.38,31.38,0,0,1,4.91-1C76.36,45.8,90.53,45.42,104.77,45.42Z"/><path class="cls-3" d="M114.77,29.42h.11A8.51,8.51,0,0,1,123.37,38a8.67,8.67,0,0,1-8.68,8.56,8.59,8.59,0,0,1,.08-17.17Z"/><path class="cls-3" d="M147,40.45c1.06,11.25,1.75,64.43-1.56,76.89-4.43,16.31-15.07,26-31.58,28.6-6.16,1-22.81,1.59-39.45,1.59-17,0-34-.62-39.73-2.11-16.22-4.19-25.91-14.75-28.48-31.18C4.29,102.18,4.09,46.13,7.57,34,12.11,18.11,22.69,8.8,38.73,6.16,46,5,60.22,4.55,74.57,4.55c13.35,0,26.82.37,34.92.81C119.31,5.87,128.3,9,135.6,16,142.55,22.7,146.11,31,147,40.45Zm-13.75,71.44c2.05-12.58,2.05-58.47.88-70.24-1.29-12.57-9-20.84-21.42-22.8-6.16-.93-21-1.35-35.76-1.35-14.24,0-28.41.39-34.65,1.07C29.84,20,21.46,27.7,19.47,40.1c-2.06,13.15-2,62.31-.5,72.19,1.59,10.28,7.39,17.34,17.65,20.21,5.55,1.56,22.17,2.12,38.46,2.12,15,0,29.73-.48,35.27-1.08,12.59-1.38,20.92-9.13,22.91-21.65"/><path class="cls-3" d="M76.67,39.41A36.35,36.35,0,0,1,113,76.11a37,37,0,0,1-37,36.64,36.31,36.31,0,0,1-36.36-36.7A37,37,0,0,1,76.67,39.41Zm-.54,60.36a24,24,0,0,0,23.92-23.49,23.48,23.48,0,0,0-23.31-24h-.21A23.94,23.94,0,0,0,52.62,75.82a23.5,23.5,0,0,0,23.3,24h.21"/></g></g></svg>