<svg id="Layer_1" data-name="Layer 1" xmlns="http://www.w3.org/2000/svg" viewBox="0 0 100 100"><defs><style>.cls-1{fill:#ec6445;}</style></defs><title>Untitled-1 [Recovered]</title><path class="cls-1" d="M9,85.07V22.61a.8.8,0,0,0,.13-.19c.9-3.75,3.36-5.71,7.19-5.71H27c0-1.57.05-3,0-4.44A2.92,2.92,0,0,1,29,9h1a2.92,2.92,0,0,1,2.08,3.27c-.07,1.45,0,2.91,0,4.37H47.46c0-1.5,0-2.94,0-4.37A2.92,2.92,0,0,1,49.52,9h1a2.92,2.92,0,0,1,2.08,3.27c-.07,1.45,0,2.91,0,4.37H68c0-1.5.05-2.94,0-4.37A2.9,2.9,0,0,1,70,9h1a2.92,2.92,0,0,1,2.08,3.27c-.07,1.45,0,2.91,0,4.44h1c3.39,0,6.77,0,10.16,0a6.81,6.81,0,0,1,6.59,5.08l.25.82V85.07a5.25,5.25,0,0,0-.17.52,6.79,6.79,0,0,1-4.93,5.16l-.83.25H14.93a2.6,2.6,0,0,0-.44-.16A6.74,6.74,0,0,1,9.25,85.9C9.17,85.63,9.08,85.35,9,85.07ZM32,21.83V26.5c0,1.79-1,3-2.52,3S27,28.31,27,26.54V21.79H16.21c-1.49,0-2.1.61-2.1,2.08q0,30,0,60c0,1.42.63,2,2,2q33.84,0,67.66,0c1.47,0,2.08-.62,2.08-2.1q0-29.94,0-59.89c0-1.51-.6-2.11-2.15-2.11H73.9c-.26,0-.52,0-.86,0v.83c0,1.42,0,2.83,0,4.24a2.54,2.54,0,1,1-5.08,0c0-.42,0-.85,0-1.28v-3.8H52.54c0,1.71,0,3.36,0,5a2.54,2.54,0,1,1-5.08,0c0-1.68,0-3.35,0-5.07Z"/><path class="cls-1" d="M27,39.79v7.56H37.11V39.79Zm18,0v7.55h10.1V39.81Zm28.05,0H62.89v7.53H73ZM37.14,52.65H27v7.53H37.14ZM55,60.19V52.64H44.94v7.55Zm7.82,0H73V52.63H62.86ZM27,73H37.11V65.44H27Zm18-7.56V73H55V65.42ZM62.86,73H73V65.45H62.86Z"/><path class="cls-1" d="M27,39.79H37.11v7.56H27Z"/><path class="cls-1" d="M45,39.81h10.1v7.55H45Z"/><path class="cls-1" d="M73,39.84v7.53H62.89V39.84Z"/><path class="cls-1" d="M37.14,52.65v7.53H27V52.65Z"/><path class="cls-1" d="M55,60.19H44.94V52.64H55Z"/><path class="cls-1" d="M62.86,60.17V52.63H73v7.54Z"/><path class="cls-1" d="M27,73V65.44H37.11V73Z"/><path class="cls-1" d="M44.94,65.42H55V73H44.94Z"/><path class="cls-1" d="M62.86,73V65.45H73V73Z"/></svg>