<svg id="Capa_1" data-name="Capa 1" xmlns="http://www.w3.org/2000/svg" viewBox="0 0 438.55 438.55"><defs><style>.cls-1{fill:#fff;}</style></defs><title>Artboard 1 copy 2</title><path class="cls-1" d="M78.6,24.53c7.93,0,16.05,1.42,23.93,2.78,4.71.63,9.06,7.55,11.54,12.58,11.43,26.73,22.86,53.45,32.71,80.81,5.55,14.46-4.61,28.3-25.87,52.2-6.66,7.54-8,14.78-3,23.58,33.53,57.54,80.69,99,143.08,123.58a22.13,22.13,0,0,0,7.82,1.6c5.33,0,9.76-2.6,13.92-7.58,26.66-32.2,34.26-46.29,45.06-46.29,2.7,0,5.6.89,9,2.58,83.34,39.94,89.93,41.51,90.17,50.94,2.18,67-56.15,93.29-95.66,93.29-2.05,0-4.05-.07-6-.21-80.79-2.83-209.23-66.67-296.41-220.11C-1.78,139.88,3.09,77.93,49.33,35.17,58.13,27,68.2,24.53,78.6,24.53Z"/></svg>