<svg id="Layer_1" data-name="Layer 1" xmlns="http://www.w3.org/2000/svg" viewBox="0 0 197 200"><defs><style>.cls-1{opacity:0.52;}.cls-2{fill:#fff;}</style></defs><title>play</title><g id="_12ApX0.tif" data-name="12ApX0.tif" class="cls-1"><path class="cls-2" d="M61.61,169H55.83c-4.48-1.9-7.78-4.93-8.79-9.84a42.67,42.67,0,0,1-1-8.56q-.11-53,0-106.08a41.76,41.76,0,0,1,.5-6.61c1.42-9,7.57-13.24,16.32-11.2a28.13,28.13,0,0,1,7.44,3q47,26.84,94,53.83c5.08,2.91,9.15,6.67,10.79,12.54V99c-1.73,6.07-6.08,9.79-11.33,12.79-28.55,16.34-57,32.78-85.64,49.06C72.73,163.86,67.09,166.3,61.61,169Z"/><path class="cls-2" d="M175,96.11c-1.64-5.87-5.71-9.63-10.79-12.54q-47-26.94-93.95-53.83a28.13,28.13,0,0,0-7.44-3c-8.75-2-14.9,2.24-16.32,11.2a41.76,41.76,0,0,0-.5,6.61q0,53,0,106.08a42.67,42.67,0,0,0,1,8.56c1,4.91,4.31,7.94,8.79,9.84"/><path class="cls-2" d="M61.61,169c5.48-2.7,11.12-5.14,16.42-8.15"/></g></svg>