<svg id="Layer_1" data-name="Layer 1" xmlns="http://www.w3.org/2000/svg" viewBox="0 0 300 300"><defs><style>.cls-1,.cls-2{fill:#151819;}.cls-1{isolation:isolate;}</style></defs><title>Artboard 3 copy 10</title><path class="cls-1" d="M138.73,151.57V59.7c0-7.79,2.16-13.85,9-14.39s10.82,5.3,10.82,13.74V243.87c0,8.12-3,13.42-9.74,13.31s-9.52-5.73-9.52-13.74C138.83,212.82,138.73,182.19,138.73,151.57Z"/><path class="cls-1" d="M114.16,226.67v54.1c0,8.44-1.62,15.58-9.74,15.58s-9.63-6.81-9.63-15.36V169.1c0-8.44,1.52-15.69,9.52-15.8s9.85,7.14,9.85,15.58C114.05,188.25,114.16,207.52,114.16,226.67Z"/><path class="cls-1" d="M182.55,75.61V19.23c0-8.55,1.84-15.69,9.74-15.58s9.63,7.25,9.63,15.8V131.23c0,8.55-1.73,15.47-9.74,15.47s-9.74-7.25-9.63-15.69C182.66,112.51,182.55,94.11,182.55,75.61Z"/><path class="cls-1" d="M245.53,132.85v25.54c0,7.25-3.25,10.82-9.2,10.82s-9.74-4.11-9.85-10.82v-52c0-6.82,3.9-10.82,9.85-10.82s9.2,4.33,9.2,11.58Z"/><path class="cls-2" d="M70.45,172.56V198.1c0,7.36-3.14,10.82-9.2,11.36s-9.63-4-9.85-10.82v-52c0-6.81,3.79-10.82,9.74-10.82s9.2,4.33,9.2,11.69Z"/></svg>