<svg id="Layer_1" data-name="Layer 1" xmlns="http://www.w3.org/2000/svg" viewBox="0 0 200 200"><defs><style>.cls-1,.cls-2,.cls-3,.cls-4,.cls-5{fill:#151819;}.cls-1{opacity:0.7;}.cls-2{opacity:0.9;}.cls-3{opacity:0.6;}.cls-4{opacity:0.4;}</style></defs><title>Artboard 2 copy 2</title><path class="cls-1" d="M92.26,101c0-19.88,0-39.76,0-59.64,0-5.07,1.31-9,5.45-9.33,4.51-.39,6.23,3.42,6.23,8.9q0,60,0,120c0,5.32-1.83,8.76-5.9,8.68s-5.79-3.75-5.77-8.94C92.29,140.75,92.26,120.87,92.26,101Z"/><path class="cls-2" d="M77.35,149.73c0,11.75-.06,23.51,0,35.27,0,5.45-.94,10.08-5.86,10.14s-5.88-4.48-5.85-10q.15-36.31,0-72.62c0-5.49.93-10.18,5.75-10.23s6,4.59,6,10.1C77.29,124.83,77.35,137.28,77.35,149.73Z"/><path class="cls-3" d="M118.8,51.69c0-12.21.07-24.43,0-36.64,0-5.51,1.12-10.16,5.92-10.09s5.82,4.73,5.8,10.23q-.15,36.3,0,72.59c0,5.53-1,10.08-5.9,10s-5.88-4.67-5.82-10.16C118.88,75.66,118.8,63.67,118.8,51.69Z"/><path class="cls-4" d="M157,88.84v16.55c0,4.76-1.92,7.31-5.57,7.4s-5.87-2.64-6-7.1q-.32-16.89,0-33.79c.1-4.45,2.36-7.31,5.95-7.15S157,67.53,157,72.29Z"/><path class="cls-5" d="M50.82,114.63q0,8.27,0,16.55c0,4.76-1.92,7.3-5.57,7.39s-5.86-2.63-6-7.1c-.21-11.25-.21-22.53,0-33.78.09-4.45,2.36-7.32,5.95-7.15s5.55,2.77,5.55,7.54Q50.83,106.35,50.82,114.63Z"/></svg>