<svg id="Layer_1" data-name="Layer 1" xmlns="http://www.w3.org/2000/svg" viewBox="0 0 300 300"><defs><style>.cls-1{fill:#dbdbdd;isolation:isolate;}</style></defs><title>icon_SM</title><path class="cls-1" d="M149.88,5.21a145.12,145.12,0,1,1-145,145.24c0-.75,0-1.5,0-2.24A145,145,0,0,1,149.88,5.21ZM128.64,81.15a282.19,282.19,0,0,0-42.36,3.46c-9.16,1.59-18,3.71-26.55,6A13.22,13.22,0,0,0,50.17,108a13.27,13.27,0,0,0,16.17,9.54,10.15,10.15,0,0,0,1.22-.38,222.55,222.55,0,0,1,59.09-8h19.78a226.3,226.3,0,0,1,34.12,4.25,174.23,174.23,0,0,1,55.77,20,13.9,13.9,0,0,0,14.21-23.9c-3.72-2.13-7.44-4.25-11.16-6.11a237.36,237.36,0,0,0-79.66-21.11C149.09,82,138.73,81.82,128.64,81.15Zm-2.92,50.46a178.06,178.06,0,0,0-36.65,3A214.18,214.18,0,0,0,67,140a11.15,11.15,0,0,0-7.55,13.85c.07.25.16.51.25.76A11.42,11.42,0,0,0,74,162.07l.16-.06a170.07,170.07,0,0,1,42.36-7A197.64,197.64,0,0,1,147.23,156a221.65,221.65,0,0,1,32.4,6.24,165.14,165.14,0,0,1,38.9,16.46,13.2,13.2,0,0,0,7,1.86,11.55,11.55,0,0,0,10.62-9.16A11.3,11.3,0,0,0,230.35,159c-6.38-3.58-13.28-7.17-19.52-10.22a212.42,212.42,0,0,0-85.11-17.13Zm83,87.9h0a16.87,16.87,0,0,0,2.66,0,8.91,8.91,0,0,0,6.64-8.24,9.29,9.29,0,0,0-4.92-9.16,159.22,159.22,0,0,0-78.6-22.3,198.66,198.66,0,0,0-40.76,2.52c-7.3,1.2-14.74,2.52-22,4.25a8.9,8.9,0,0,0-6.54,10.75l0,.14a9.29,9.29,0,0,0,11.07,7.08l.22,0a217.75,217.75,0,0,1,39.83-5.85,172.63,172.63,0,0,1,35.05,1.47,137,137,0,0,1,51.92,18.19,26.67,26.67,0,0,0,5.44,1.18Z"/></svg>