<svg id="Layer_1" data-name="Layer 1" xmlns="http://www.w3.org/2000/svg" viewBox="0 0 300 300"><defs><style>.cls-1{fill:#FA5028;isolation:isolate;}</style></defs><title>icon_SM</title><path class="cls-1" d="M300,57.93a97.18,97.18,0,0,1-7,9.52,112.26,112.26,0,0,1-22.4,21.19l-1.07,2a170.47,170.47,0,0,1-1.34,26.82,180.26,180.26,0,0,1-16.1,54.59,183.06,183.06,0,0,1-33.66,48.41,165.7,165.7,0,0,1-84.75,47.07,193.87,193.87,0,0,1-34.2,4H94A172.9,172.9,0,0,1,1.47,244.75L0,243.81a132.16,132.16,0,0,0,14.48.8,124.17,124.17,0,0,0,47.08-9.25,119.16,119.16,0,0,0,29.23-17,61,61,0,0,1-56.73-42.65,56,56,0,0,0,11.4,1.08A62.76,62.76,0,0,0,60.35,175h.94a60,60,0,0,1-40.23-28.16,59,59,0,0,1-8.86-32.59A59.59,59.59,0,0,0,39,121.51a61.2,61.2,0,0,1-25-37.15,59.9,59.9,0,0,1,7-44.39,174.31,174.31,0,0,0,126.06,64.1c0-2.55-.67-4.56-.94-6.7a59.57,59.57,0,0,1,9.39-40.24,58.76,58.76,0,0,1,41.7-27.76,66.53,66.53,0,0,1,11.27-.94,59.57,59.57,0,0,1,42.38,18,3.58,3.58,0,0,0,2.28,1.08h.94a122.35,122.35,0,0,0,35.8-13.41h.81a60.65,60.65,0,0,1-26,33.39A112.32,112.32,0,0,0,300,57.93Z"/></svg>