<svg xmlns="http://www.w3.org/2000/svg" viewBox="0 0 180 180"><defs><style>.cls-1{isolation:isolate;}.cls-2{fill:#ccc;mix-blend-mode:multiply;}.cls-3{fill:#fff;}</style></defs><title>Artboard 35 copy</title><g class="cls-1"><g id="Layer_1" data-name="Layer 1"><path class="cls-2" d="M45.26,54.85q-3.06-3.06-5.92-6.48L11.19,20.12q2.88,3.4,5.92,6.47Z"/><path class="cls-2" d="M15.88,57.7,44,86a36,36,0,0,0,4.42,3.75L20.3,61.45A35.23,35.23,0,0,1,15.88,57.7Z"/><path class="cls-2" d="M15.59,80.19l28.14,28.25a31.11,31.11,0,0,0,15.43,8.29L31,88.47A31.17,31.17,0,0,1,15.59,80.19Z"/><path class="cls-2" d="M173.55,50.44c.23-.41.4-.86.6-1.28.37-.77.78-1.52,1.09-2.34.22-.58.42-1.17.61-1.76L147.71,16.8A29.94,29.94,0,0,1,146,20.9c-.2.43-.37.87-.59,1.28a28.1,28.1,0,0,1-1.78,2.75c-.39.55-.71,1.14-1.13,1.66a32.46,32.46,0,0,1-2.42,2.57c-.42.41-.78.87-1.23,1.26a34.5,34.5,0,0,1-4.35,3.3l7.05,7.08c-1.48,1.31-3,2.62-4.58,3.79l-.53,1c.08,2.76,0,5.52-.19,8.28-.12,1.83-.25,3.66-.5,5.49-.33,2.64-.81,5.24-1.38,7.82-.35,1.6-.77,3.17-1.21,4.75-.17.6-.3,1.21-.48,1.81-.65,2.18-1.39,4.34-2.2,6.48-.88,2.3-1.84,4.57-2.9,6.81-1,2-2,4-3.16,6-.77,1.36-1.62,2.67-2.45,4-.55.85-1.06,1.73-1.63,2.57-1,1.45-2.07,2.85-3.15,4.25-.5.64-1,1.3-1.46,1.93-1.62,2-3.33,3.91-5.14,5.76A83.58,83.58,0,0,1,70,134.74L46,110.62a31,31,0,0,1-21.25-9.14l28.15,28.25a30.79,30.79,0,0,0,9.47,6.47,99.16,99.16,0,0,1-12,1.16c-.94,0-1.87,0-2.8,0A87,87,0,0,1,.75,124L0,123.53l28.15,28.25.75.46a87,87,0,0,0,46.8,13.42c.92,0,1.86,0,2.8,0a95.7,95.7,0,0,0,17.33-2,83.74,83.74,0,0,0,42.91-23.83q2.72-2.79,5.14-5.77l.13-.15c.47-.57.87-1.19,1.32-1.78,1.08-1.4,2.16-2.79,3.16-4.25.57-.84,1.08-1.71,1.62-2.57.84-1.31,1.68-2.62,2.46-4,.11-.19.24-.38.35-.57,1-1.76,1.92-3.56,2.81-5.4,1.05-2.24,2-4.51,2.89-6.81l.06-.14c.8-2.09,1.51-4.2,2.15-6.34.18-.6.31-1.2.48-1.8.38-1.4.79-2.79,1.11-4.21,0-.18.06-.37.1-.55.56-2.58,1-5.18,1.38-7.81.2-1.51.36-3,.48-4.52,0-.32,0-.65,0-1,.18-2.76.27-5.53.19-8.29l.53-1a59.83,59.83,0,0,0,6-5c.61-.58,1.13-1.25,1.72-1.86,1.19-1.23,2.41-2.43,3.5-3.76a1.83,1.83,0,0,1,.13-.16l.54-.65a50.38,50.38,0,0,0,3-4.12l-6.58-6.6C173.47,50.63,173.51,50.53,173.55,50.44Z"/><path class="cls-3" d="M151.85,29.07a47.57,47.57,0,0,1-3.52,4.76A58.86,58.86,0,0,1,137,44.59l-.53,1a83.62,83.62,0,0,1-.69,13.77,92.08,92.08,0,0,1-25.16,52.14,83.77,83.77,0,0,1-42.9,23.84,95.91,95.91,0,0,1-17.34,2c-.94,0-1.87,0-2.8,0A87,87,0,0,1,.75,124L0,123.53a69.51,69.51,0,0,0,7.3.39,63.19,63.19,0,0,0,23.83-4.64A61.74,61.74,0,0,0,46,110.62c-16.1-.52-26.12-12.15-28.72-21.56a30.55,30.55,0,0,0,5.77.55,32.85,32.85,0,0,0,7.54-.9l.47-.24c-8.76-2-15.47-6.68-20.06-14.24A30.09,30.09,0,0,1,6.49,57.72,30.59,30.59,0,0,0,20.3,61.45a31.13,31.13,0,0,1-9.11-41.33C27.84,39.94,49,50.81,75,52.61c-.16-1.28-.33-2.33-.49-3.43a30.12,30.12,0,0,1,4.74-20.29A29.93,29.93,0,0,1,100.4,14.83a33.57,33.57,0,0,1,5.66-.49c8.12,0,15.32,3.13,21.48,9.15a1.68,1.68,0,0,0,1.14.53,1.81,1.81,0,0,0,.49-.07A61.22,61.22,0,0,0,147.3,17l.4-.23a30.64,30.64,0,0,1-13.2,16.92A60.09,60.09,0,0,0,151.85,29.07Z"/></g></g></svg>