<svg xmlns="http://www.w3.org/2000/svg" viewBox="0 0 180 180"><defs><style>.cls-1{isolation:isolate;}.cls-2{fill:#ccc;mix-blend-mode:multiply;}.cls-3{fill:#fff;}</style></defs><title>Artboard 35 copy 3</title><g class="cls-1"><g id="Layer_1" data-name="Layer 1"><path class="cls-2" d="M131.09,104.09,103.64,76.54C88.51,68.6,73.55,60.78,58.53,52.9c-.12,15.76-.24,31.35-.36,47.16l27.45,27.56c.12-15.82.23-31.41.36-47.17h0C101,88.33,116,96.15,131.09,104.09Z"/><path class="cls-2" d="M176.52,112.15c.1-2.91.13-5.86.13-8.8v-1.57q0-4.31-.2-8.45c0-.56,0-1.08-.07-1.63-.14-2.8-.31-5.53-.54-8.08a.45.45,0,0,0,0-.11c-.09-1-.2-1.91-.31-2.85-.07-.62-.13-1.28-.2-1.87-.13-1-.29-2-.44-2.94-.08-.45-.14-1-.22-1.4-.17-1-.36-1.8-.55-2.64-.08-.35-.15-.75-.23-1.08a27.33,27.33,0,0,0-.91-3c0-.07-.05-.14-.08-.2s-.17-.28-.23-.44a17.63,17.63,0,0,0-1.83-3.35c-.09-.14-.15-.33-.25-.46A14.94,14.94,0,0,0,169,61.5L141.59,34a17.33,17.33,0,0,1,1.8,2.26,18,18,0,0,1,1.82,3.36c.1.23.23.41.31.64a25.28,25.28,0,0,1,.91,3c.1.4.19.9.29,1.34.17.77.34,1.51.5,2.37.08.49.15,1.06.23,1.57.15.91.3,1.8.42,2.78.08.59.14,1.25.21,1.87.11,1,.22,1.93.32,3,.23,2.55.4,5.29.53,8.1,0,.53,0,1,.08,1.59.11,2.76.17,5.6.19,8.47,0,.53,0,1,0,1.58,0,2.92,0,5.85-.13,8.75v.31c-.1,2.94-.27,5.81-.47,8.61,0,.69-.1,1.39-.16,2.07s-.11,1.25-.16,1.88c-.1,1.08-.21,2.13-.33,3.17l-.21,1.76c-.13,1-.28,2.06-.43,3-.07.48-.14,1-.22,1.45-.23,1.33-.46,2.6-.72,3.77,0,.08,0,.16-.05.24-.27,1.18-.56,2.25-.86,3.26-.08.27-.17.53-.26.79a21.76,21.76,0,0,1-.95,2.49,14.68,14.68,0,0,1-1,1.77c-.24.38-.49.77-.76,1.12s-.49.58-.74.86a16.9,16.9,0,0,1-1.76,1.73c-.26.22-.5.44-.77.64a21.13,21.13,0,0,1-2.87,1.87c-4.92,2.54-33.45,3.74-61.41,3.74-25.74,0-51-1-56.89-2.94A17.6,17.6,0,0,1,11,122L38.4,149.51a17.67,17.67,0,0,0,7.05,4.24c5.91,1.93,31.16,2.94,56.89,2.94,28,0,56.5-1.2,61.42-3.74a22.78,22.78,0,0,0,2.87-1.86l.76-.64a18.17,18.17,0,0,0,1.77-1.74c.14-.16.32-.28.46-.45s.18-.28.28-.41c.27-.35.51-.74.76-1.12s.38-.51.53-.79.35-.64.51-1,.42-1,.62-1.49c.12-.3.22-.66.33-1s.17-.52.26-.81c.3-1,.59-2,.85-3.23v0c0-.08,0-.16,0-.23.26-1.18.5-2.45.73-3.78.07-.46.14-1,.22-1.45.15-1,.29-2,.43-3.05q.1-.87.21-1.77c.11-1,.22-2.08.32-3.16.06-.62.12-1.24.17-1.88,0-.37.07-.71.1-1.08s0-.67,0-1c.2-2.8.37-5.68.47-8.63A2,2,0,0,0,176.52,112.15Z"/><path class="cls-3" d="M145.52,40.21c5.23,13.77,5,63.93-1.27,77.2a17.46,17.46,0,0,1-7.94,8c-4.92,2.54-33.45,3.74-61.41,3.74-25.74,0-51-1-56.89-2.94A16.91,16.91,0,0,1,6.87,115.31C2.15,102,1.1,46.21,10.54,35.22a18.27,18.27,0,0,1,12.23-6.47C34,27.54,55.63,27,77,27c26.57,0,52.68.92,57.64,2.71A17.19,17.19,0,0,1,145.52,40.21ZM58.17,100.06c15.14-7.88,30.22-15.64,45.47-23.52C88.51,68.6,73.55,60.78,58.53,52.9c-.12,15.76-.24,31.35-.36,47.16"/></g></g></svg>