<svg id="Layer_1" data-name="Layer 1" xmlns="http://www.w3.org/2000/svg" viewBox="0 0 300 300"><defs><style>.cls-1{fill:#dbdbdd;isolation:isolate;}</style></defs><title>icon_SM</title><path class="cls-1" d="M290,76.8c10.58,27.47,10.17,129.38-2.47,156.17a36.59,36.59,0,0,1-16.07,16.2c-10,5.09-67.71,7.56-124.3,7.56a681.55,681.55,0,0,1-115.1-6,33.66,33.66,0,0,1-22.52-22C0,201.24-2.1,88.89,17,66.64a37,37,0,0,1,24.73-13c22.66-2.47,66.47-3.71,109.88-3.71a745.06,745.06,0,0,1,116.61,5.49A34.6,34.6,0,0,1,290,76.8Zm-176.76,121,92-47.53-91.2-47.79c0,31.86,0,63.32-.82,95.32"/></svg>